<svg width="426" height="96" viewBox="0 0 426 96" fill="none" xmlns="http://www.w3.org/2000/svg">
<path d="M0 3.17556C0 2.83803 0.112587 2.5691 0.340506 2.36878C0.568425 2.16571 0.851264 2.06418 1.18628 2.06418H28.3855C28.6876 2.06418 28.9567 2.15748 29.1929 2.34134C29.429 2.52794 29.5636 2.8051 29.5965 3.17282V9.45694C29.5965 9.7588 29.4922 10.0497 29.2807 10.3268C29.0693 10.604 28.77 10.7439 28.3855 10.7439H19.6724V38.3529C19.6724 38.6548 19.5626 38.9292 19.3429 39.1734C19.1232 39.4177 18.8376 39.5384 18.4834 39.5384H11.0609C10.7754 39.5384 10.5062 39.4259 10.2536 39.1981C10.001 38.9704 9.87466 38.6905 9.87466 38.3529V10.7467H1.18628C0.848518 10.7467 0.568425 10.6369 0.340506 10.4174C0.112587 10.2006 0 9.87954 0 9.45968V3.17556Z" fill="#20262D"/>
<path d="M75.6581 39.0362C75.7927 38.7837 75.9327 38.5285 76.0755 38.2678C76.2183 38.0071 76.3831 37.741 76.5671 37.472L87.9301 20.5131L76.4407 3.27708C76.3556 3.14261 76.2815 3.01089 76.2128 2.88466C76.1442 2.75843 76.1112 2.64592 76.1112 2.54439C76.1112 2.40992 76.1909 2.32211 76.3501 2.2782C76.5094 2.23704 76.6824 2.21509 76.8691 2.21509H85.6564C86.2797 2.21509 86.7685 2.53615 87.12 3.1728L93.3068 12.4343L99.5704 3.1728C99.9247 2.53341 100.411 2.21509 101.034 2.21509H109.47C109.755 2.21509 110 2.23704 110.203 2.2782C110.406 2.31937 110.505 2.43462 110.505 2.61848C110.505 2.75294 110.428 2.94778 110.277 3.20024L98.6615 20.5131L110.505 38.18C110.656 38.416 110.78 38.6218 110.87 38.7975C110.964 38.9731 111.01 39.1295 111.01 39.264C111.01 39.5494 110.859 39.6921 110.554 39.6921H101.515C101.229 39.6921 100.968 39.607 100.732 39.4396C100.496 39.2722 100.312 39.0444 100.177 38.759L93.3095 28.5892L86.5159 38.759C86.3813 39.0444 86.1946 39.2722 85.9612 39.4396C85.725 39.607 85.4641 39.6921 85.1786 39.6921H76.1112C75.9767 39.6921 75.8586 39.6536 75.757 39.5795C75.6554 39.5027 75.606 39.3984 75.606 39.264C75.6087 39.1624 75.6252 39.0856 75.6581 39.0362Z" fill="#20262D"/>
<path d="M113.237 3.32647C113.237 3.04108 113.339 2.78313 113.539 2.55811C113.743 2.33034 114.004 2.21783 114.322 2.21783H121.821C122.074 2.21783 122.335 2.32211 122.604 2.53341C122.873 2.74471 123.008 3.00815 123.008 3.32922V19.9835H135.56V3.32647C135.56 3.02461 135.664 2.76392 135.875 2.54439C136.087 2.32485 136.359 2.21509 136.697 2.21509H144.097C144.435 2.21509 144.729 2.30016 144.981 2.46755C145.234 2.63494 145.36 2.90662 145.36 3.27433V38.5807C145.36 38.9511 145.25 39.2283 145.031 39.4121C144.811 39.5988 144.525 39.6893 144.171 39.6893H136.697C136.359 39.6893 136.087 39.596 135.875 39.4121C135.664 39.2283 135.56 38.9484 135.56 38.5807V28.9404H123.008V38.5807C123.008 38.9347 122.895 39.2063 122.667 39.4012C122.439 39.596 122.132 39.6921 121.745 39.6921H114.319C113.63 39.6921 113.268 39.3628 113.235 38.7069V3.32647H113.237Z" fill="#20262D"/>
<path d="M151.849 20.9906C151.849 19.2069 152.077 17.4946 152.53 15.8563C152.986 14.2153 153.631 12.6758 154.474 11.2379C155.314 9.79994 156.322 8.49097 157.492 7.31373C158.662 6.13649 159.964 5.12938 161.394 4.2979C162.825 3.46642 164.363 2.8188 166.002 2.35504C167.644 1.89128 169.358 1.66077 171.14 1.66077C172.908 1.66077 174.616 1.89128 176.267 2.35504C177.917 2.8188 179.457 3.46642 180.888 4.2979C182.319 5.12938 183.623 6.13649 184.801 7.31373C185.979 8.49097 186.987 9.79994 187.819 11.2379C188.651 12.6758 189.299 14.2153 189.763 15.8563C190.227 17.4973 190.458 19.2097 190.458 20.9906C190.458 22.7743 190.227 24.4867 189.763 26.1249C189.299 27.7659 188.651 29.2972 187.819 30.7186C186.987 32.1401 185.979 33.4354 184.801 34.6044C183.623 35.7734 182.319 36.7778 180.888 37.6202C179.457 38.4627 177.917 39.1103 176.267 39.5631C174.616 40.0186 172.908 40.2436 171.14 40.2436C169.355 40.2436 167.641 40.0159 166.002 39.5631C164.36 39.1075 162.825 38.4627 161.394 37.6202C159.964 36.7805 158.662 35.7734 157.492 34.6044C156.322 33.4354 155.317 32.1401 154.474 30.7186C153.631 29.2972 152.983 27.7659 152.53 26.1249C152.077 24.4867 151.849 22.7743 151.849 20.9906Z" fill="#02D3BA"/>
<path d="M198.592 3.4774C198.592 3.17554 198.685 2.88741 198.869 2.61848C199.053 2.34955 199.333 2.21509 199.701 2.21509H228.213C228.551 2.21509 228.844 2.30016 229.097 2.46755C229.35 2.63494 229.476 2.90662 229.476 3.27433V38.5807C229.476 38.9511 229.366 39.2283 229.147 39.4121C228.927 39.5988 228.641 39.6893 228.287 39.6893H220.812C220.475 39.6893 220.203 39.596 219.991 39.4121C219.78 39.2283 219.676 38.9484 219.676 38.5807V11.1995H208.387V28.1831C208.387 29.8488 208.065 31.4047 207.428 32.8509C206.789 34.297 205.904 35.5648 204.776 36.6488C203.647 37.7327 202.31 38.5916 200.761 39.2228C199.212 39.854 197.521 40.1695 195.686 40.1695C195.332 40.1695 195.06 40.057 194.865 39.8293C194.67 39.6015 194.574 39.2942 194.574 38.9072V32.0935C194.574 31.369 194.904 31.0095 195.56 31.0095C195.947 31.0095 196.326 30.9327 196.697 30.7818C197.068 30.6308 197.392 30.4278 197.669 30.1753C197.946 29.9228 198.169 29.6237 198.339 29.2807C198.507 28.935 198.592 28.57 198.592 28.1831V3.4774Z" fill="#20262D"/>
<path d="M235.866 20.9906C235.866 19.2069 236.094 17.4946 236.547 15.8563C237.003 14.2153 237.648 12.6758 238.491 11.2379C239.334 9.79994 240.339 8.49097 241.509 7.31373C242.679 6.13649 243.981 5.12938 245.411 4.2979C246.842 3.46642 248.38 2.8188 250.019 2.35504C251.661 1.89128 253.375 1.66077 255.157 1.66077C256.925 1.66077 258.633 1.89128 260.284 2.35504C261.934 2.8188 263.474 3.46642 264.905 4.2979C266.336 5.12938 267.64 6.13649 268.818 7.31373C269.996 8.49097 271.004 9.79994 271.836 11.2379C272.668 12.6758 273.316 14.2153 273.78 15.8563C274.244 17.4973 274.475 19.2097 274.475 20.9906C274.475 22.7743 274.244 24.4867 273.78 26.1249C273.316 27.7659 272.668 29.2972 271.836 30.7186C271.004 32.1401 269.996 33.4354 268.818 34.6044C267.64 35.7734 266.336 36.7778 264.905 37.6202C263.474 38.4627 261.934 39.1103 260.284 39.5631C258.633 40.0186 256.925 40.2436 255.157 40.2436C253.372 40.2436 251.658 40.0159 250.019 39.5631C248.377 39.1075 246.842 38.4627 245.411 37.6202C243.981 36.7805 242.679 35.7734 241.509 34.6044C240.339 33.4354 239.334 32.1401 238.491 30.7186C237.648 29.2972 237 27.7659 236.547 26.1249C236.094 24.4867 235.866 22.7743 235.866 20.9906ZM245.614 20.9659C245.614 22.3627 245.851 23.6662 246.323 24.8763C246.795 26.0865 247.454 27.143 248.305 28.0431C249.157 28.9432 250.162 29.6512 251.323 30.1616C252.485 30.6747 253.765 30.9299 255.162 30.9299C256.56 30.9299 257.842 30.6747 259.012 30.1616C260.182 29.6484 261.193 28.9432 262.044 28.0431C262.895 27.143 263.554 26.0865 264.026 24.8763C264.499 23.6662 264.735 22.3627 264.735 20.9659C264.735 19.5856 264.499 18.2876 264.026 17.0665C263.554 15.8481 262.895 14.7833 262.044 13.875C261.193 12.9667 260.182 12.2505 259.012 11.7291C257.842 11.2077 256.557 10.947 255.162 10.947C253.765 10.947 252.485 11.2077 251.323 11.7291C250.162 12.2505 249.157 12.9667 248.305 13.875C247.454 14.7833 246.795 15.8481 246.323 17.0665C245.851 18.2876 245.614 19.5883 245.614 20.9659Z" fill="#20262D"/>
<path d="M318.345 41.2809C318.244 41.3989 318.123 41.4922 317.98 41.5581C317.837 41.6239 317.714 41.6596 317.615 41.6596C317.395 41.6596 317.228 41.613 317.11 41.5197C316.992 41.4264 316.904 41.3166 316.843 41.1904C316.783 41.0641 316.75 40.9379 316.742 40.8117C316.733 40.6854 316.728 40.5894 316.728 40.5208V3.47466C316.728 2.63221 317.132 2.21235 317.939 2.21235H325.035C325.894 2.21235 326.322 2.63221 326.322 3.47466V20.8891L348.42 0.875947C348.521 0.757948 348.642 0.664647 348.785 0.598787C348.928 0.532927 349.059 0.497253 349.178 0.497253C349.397 0.497253 349.565 0.543904 349.683 0.637205C349.801 0.730507 349.886 0.840273 349.935 0.966504C349.985 1.09274 350.015 1.21897 350.023 1.3452C350.032 1.47143 350.037 1.56748 350.037 1.63608V38.4297C350.037 39.2722 349.633 39.6921 348.826 39.6921H341.73C340.887 39.6921 340.467 39.2722 340.467 38.4297V22.2804L318.345 41.2809Z" fill="#20262D"/>
<path d="M360.087 41.2809C359.986 41.3989 359.865 41.4922 359.722 41.5581C359.579 41.6239 359.456 41.6596 359.357 41.6596C359.137 41.6596 358.97 41.613 358.852 41.5197C358.734 41.4264 358.646 41.3166 358.585 41.1904C358.525 41.0641 358.492 40.9379 358.484 40.8117C358.476 40.6854 358.47 40.5894 358.47 40.5208V3.47466C358.47 2.63221 358.874 2.21235 359.681 2.21235H366.777C367.636 2.21235 368.065 2.63221 368.065 3.47466V20.8891L390.162 0.875947C390.263 0.757948 390.384 0.664647 390.527 0.598787C390.67 0.532927 390.802 0.497253 390.92 0.497253C391.139 0.497253 391.307 0.543904 391.425 0.637205C391.543 0.730507 391.628 0.840273 391.678 0.966504C391.727 1.09274 391.757 1.21897 391.765 1.3452C391.774 1.47143 391.779 1.56748 391.779 1.63608V38.4297C391.779 39.2722 391.376 39.6921 390.568 39.6921H383.472C382.629 39.6921 382.209 39.2722 382.209 38.4297V22.2804L360.087 41.2809Z" fill="#20262D"/>
<path d="M69.0979 10.8016H34.4872C33.6441 10.8016 32.9604 10.1183 32.9604 9.27582V3.58993C32.9604 2.74747 33.6441 2.06418 34.4872 2.06418H69.0979C69.9409 2.06418 70.6247 2.74747 70.6247 3.58993V9.27308C70.6247 10.1183 69.9409 10.8016 69.0979 10.8016Z" fill="#F9000C"/>
<path d="M60.069 25.4471H34.2895C33.5563 25.4471 32.9631 24.8544 32.9631 24.1217V18.0379C32.9631 17.3052 33.5563 16.7125 34.2895 16.7125H60.069C60.8022 16.7125 61.3953 17.3052 61.3953 18.0379V24.1217C61.3953 24.8544 60.8022 25.4471 60.069 25.4471Z" fill="#02D3BA"/>
<path d="M69.0979 40.0954H34.4872C33.6441 40.0954 32.9604 39.4121 32.9604 38.5697V32.8865C32.9604 32.0441 33.6441 31.3608 34.4872 31.3608H69.0979C69.9409 31.3608 70.6247 32.0441 70.6247 32.8865V38.5697C70.6247 39.4121 69.9409 40.0954 69.0979 40.0954Z" fill="#6B50B8"/>
<path d="M308.38 11.1089H282.6C281.867 11.1089 281.274 10.5162 281.274 9.78349V3.69695C281.274 2.96426 281.867 2.37152 282.6 2.37152H308.38C309.113 2.37152 309.706 2.96426 309.706 3.69695V9.78075C309.706 10.5134 309.113 11.1089 308.38 11.1089Z" fill="#20262D"/>
<path d="M281.274 40.3177V14.5556C281.274 13.8229 281.867 13.2301 282.6 13.2301H288.688C289.422 13.2301 290.015 13.8229 290.015 14.5556V40.3177C290.015 41.0504 289.422 41.6431 288.688 41.6431H282.6C281.867 41.6431 281.274 41.0504 281.274 40.3177Z" fill="#20262D"/>
<path d="M239.699 17.0143C239.699 15.9222 239.84 14.8739 240.117 13.8723C240.394 12.8679 240.792 11.9267 241.306 11.0458C241.822 10.1649 242.437 9.36362 243.154 8.64465C243.871 7.92293 244.667 7.30824 245.543 6.79783C246.419 6.28742 247.358 5.89226 248.363 5.60961C249.368 5.32696 250.417 5.18427 251.507 5.18427C252.589 5.18427 253.635 5.32696 254.646 5.60961C255.657 5.89226 256.598 6.29016 257.474 6.79783C258.35 7.30824 259.149 7.92293 259.869 8.64465C260.591 9.36636 261.206 10.1649 261.717 11.0458C262.228 11.9267 262.623 12.8679 262.906 13.8723C263.189 14.8766 263.332 15.9249 263.332 17.0143C263.332 18.1065 263.189 19.1548 262.906 20.1564C262.623 21.1608 262.225 22.0965 261.717 22.9664C261.206 23.8363 260.591 24.6294 259.869 25.3456C259.147 26.0618 258.348 26.6765 257.474 27.1924C256.598 27.7083 255.657 28.1035 254.646 28.3806C253.635 28.6578 252.589 28.7977 251.507 28.7977C250.414 28.7977 249.365 28.6578 248.363 28.3806C247.361 28.1035 246.419 27.7056 245.543 27.1924C244.667 26.6765 243.871 26.0618 243.154 25.3456C242.437 24.6294 241.822 23.8363 241.306 22.9664C240.79 22.0965 240.394 21.158 240.117 20.1564C239.837 19.1548 239.699 18.1065 239.699 17.0143Z" fill="#F9000C"/>
<path d="M25.3292 66.39H13.7383V93.8727C13.7383 94.5807 13.3429 94.9319 12.552 94.9319H4.89888C4.15746 94.9319 3.78674 94.5779 3.78674 93.8727V58.6158C3.78674 57.8419 4.15746 57.455 4.89888 57.455H34.0918C34.3773 57.455 34.6464 57.5565 34.8991 57.7568C35.1517 57.9599 35.278 58.2288 35.278 58.5636V93.8178C35.278 94.5587 34.8826 94.9292 34.0918 94.9292H26.4414C25.6999 94.9292 25.3292 94.5587 25.3292 93.8178V66.39Z" fill="#20262D"/>
<path d="M58.9157 57.455C60.2805 57.455 61.6013 57.6306 62.881 57.9846C64.1606 58.3386 65.3689 58.838 66.5057 59.4857C67.6426 60.1333 68.6778 60.9126 69.6114 61.8209C70.5451 62.7293 71.3552 63.7473 72.0362 64.8752C72.7172 66.003 73.2444 67.2214 73.6151 68.5331C73.9858 69.8449 74.1698 71.2169 74.1698 72.6466C74.1698 74.7322 73.7689 76.697 72.9698 78.5383C72.1707 80.3797 71.0806 81.996 69.6993 83.3845C68.3181 84.7731 66.7034 85.8707 64.8499 86.6775C62.999 87.4843 61.0192 87.8877 58.9157 87.8877H53.41V93.8425C53.41 94.567 53.031 94.9264 52.2731 94.9264H52.2484H44.749C44.4113 94.9264 44.1422 94.8386 43.9417 94.6603C43.7385 94.4846 43.6396 94.2102 43.6396 93.8398V58.6158C43.6396 58.2618 43.733 57.9819 43.917 57.7706C44.101 57.5593 44.3811 57.455 44.749 57.455H50.2301H50.3811H58.9157ZM64.7483 72.5231C64.7483 71.6478 64.5972 70.7724 64.2924 69.8997C63.9904 69.0243 63.5482 68.2423 62.9661 67.5535C62.3839 66.8647 61.6782 66.2994 60.8462 65.8631C60.0141 65.4268 59.0668 65.2072 58.004 65.2072H53.41V79.8446H58.0068C58.9652 79.8446 59.8576 79.6634 60.6842 79.3012C61.508 78.939 62.2192 78.4313 62.8178 77.7755C63.4164 77.1196 63.886 76.3458 64.232 75.4539C64.578 74.5566 64.7483 73.5824 64.7483 72.5231Z" fill="#20262D"/>
<path d="M127.959 58.2892C127.959 57.9873 128.055 57.7266 128.25 57.5071C128.442 57.2876 128.717 57.1778 129.071 57.1778H136.546C136.798 57.1778 137.065 57.2793 137.342 57.4797C137.619 57.6827 137.759 57.9517 137.759 58.2864V71.7383C137.943 71.7383 138.168 71.645 138.429 71.4612C138.69 71.2773 138.957 71.0358 139.226 70.7422C139.495 70.4486 139.764 70.1275 140.033 69.7845C140.302 69.4387 140.552 69.1039 140.777 68.7746C141.005 68.4453 141.197 68.1517 141.357 67.891C141.516 67.6303 141.631 67.4492 141.697 67.3477C142.573 65.767 143.465 64.3456 144.374 63.0832C145.283 61.8209 146.308 60.748 147.442 59.8643C148.579 58.9807 149.886 58.3029 151.368 57.8337C152.849 57.3617 154.601 57.1257 156.622 57.1257C157.193 57.1257 157.481 57.4385 157.481 58.0587V64.7956C157.448 65.0645 157.349 65.3033 157.19 65.5146C157.031 65.7259 156.806 65.8301 156.52 65.8301C155.831 65.8301 155.153 66.036 154.488 66.4476C153.823 66.8592 153.184 67.3806 152.568 68.0117C151.953 68.6429 151.36 69.3454 150.789 70.1193C150.218 70.8931 149.691 71.645 149.21 72.3777C148.73 73.1104 148.296 73.7663 147.909 74.3453C147.521 74.927 147.2 75.3496 146.95 75.6186L161.748 93.5873C161.932 93.8233 162.026 94.0511 162.026 94.2679C162.026 94.5203 161.839 94.6465 161.471 94.6465H151.495C151.209 94.6465 150.926 94.5615 150.649 94.3941C150.372 94.2267 150.141 93.9989 149.954 93.7135L140.409 81.8533C139.92 82.2237 139.423 82.4433 138.918 82.5091C138.413 82.5777 138.026 82.6107 137.757 82.6107V93.5379C137.757 94.2788 137.353 94.6493 136.546 94.6493H129.096C128.338 94.6493 127.959 94.2788 127.959 93.5379V58.2892Z" fill="#20262D"/>
<path d="M182.681 57.1778C184.046 57.1778 185.367 57.3535 186.647 57.7075C187.926 58.0614 189.134 58.5609 190.271 59.2085C191.408 59.8561 192.443 60.6355 193.377 61.5438C194.311 62.4521 195.121 63.4702 195.802 64.598C196.483 65.7259 197.01 66.9443 197.381 68.256C197.751 69.5677 197.935 70.9398 197.935 72.3695C197.935 74.4551 197.534 76.4199 196.735 78.2612C195.936 80.1025 194.846 81.7188 193.465 83.1074C192.084 84.4959 190.469 85.5936 188.615 86.4004C186.765 87.2072 184.785 87.6106 182.681 87.6106H177.176V93.5654C177.176 94.2898 176.797 94.6493 176.039 94.6493H176.014H168.515C168.177 94.6493 167.908 94.5615 167.707 94.3831C167.504 94.2075 167.405 93.9331 167.405 93.5626V58.3386C167.405 57.9846 167.499 57.7047 167.683 57.4934C167.867 57.2821 168.147 57.1778 168.515 57.1778H173.996H174.147H182.681ZM188.517 72.2433C188.517 71.3679 188.366 70.4925 188.061 69.6198C187.759 68.7445 187.317 67.9624 186.734 67.2736C186.152 66.5848 185.447 66.0195 184.614 65.5832C183.782 65.1469 182.835 64.9273 181.772 64.9273H177.176V79.5647H181.772C182.731 79.5647 183.623 79.3836 184.45 79.0213C185.274 78.6591 185.985 78.1514 186.583 77.4956C187.182 76.8397 187.652 76.0659 187.998 75.174C188.344 74.2794 188.517 73.3053 188.517 72.2433Z" fill="#20262D"/>
<path d="M267.333 59.9028C267.536 60.0208 267.703 60.1635 267.838 60.3309C267.972 60.4983 268.041 60.7013 268.041 60.9373C268.041 61.1239 267.992 61.316 267.89 61.5191L263.623 67.5754C263.387 67.913 263.142 68.0804 262.89 68.0804C262.722 68.0804 262.511 68.0035 262.258 67.8526C261.434 67.2297 260.523 66.7522 259.531 66.4147C258.537 66.0771 257.485 65.9097 256.373 65.9097C254.992 65.9097 253.721 66.1704 252.559 66.6918C251.398 67.2132 250.395 67.9294 249.555 68.8378C248.712 69.7461 248.056 70.8053 247.586 72.0182C247.114 73.2284 246.878 74.5264 246.878 75.904C246.878 77.2843 247.114 78.574 247.586 79.7787C248.058 80.9806 248.715 82.0344 249.555 82.9345C250.395 83.8346 251.398 84.5453 252.559 85.0667C253.721 85.5881 254.992 85.8488 256.373 85.8488C257.485 85.8488 258.545 85.6759 259.556 85.3301C260.566 84.9844 261.484 84.5014 262.307 83.8785C262.56 83.7276 262.78 83.6507 262.964 83.6507C263.2 83.6507 263.436 83.8016 263.669 84.1063L267.989 90.3135C268.091 90.5166 268.14 90.7005 268.14 90.8679C268.14 91.1039 268.069 91.2959 267.926 91.4469C267.783 91.5978 267.618 91.7405 267.434 91.875C265.853 92.9342 264.147 93.7547 262.321 94.3365C260.495 94.9182 258.57 95.2064 256.552 95.2064C254.767 95.2064 253.053 94.9786 251.414 94.5258C249.772 94.0703 248.237 93.4254 246.806 92.583C245.376 91.7432 244.074 90.7361 242.904 89.5671C241.734 88.3981 240.729 87.1029 239.886 85.6814C239.043 84.2599 238.395 82.7287 237.942 81.0877C237.486 79.4467 237.261 77.7343 237.261 75.9534C237.261 74.1696 237.489 72.4573 237.942 70.819C238.398 69.178 239.043 67.6386 239.886 66.2006C240.727 64.7627 241.734 63.4537 242.904 62.2765C244.074 61.0992 245.376 60.0921 246.806 59.2606C248.237 58.4292 249.775 57.7815 251.414 57.3178C253.056 56.854 254.77 56.6235 256.552 56.6235C258.556 56.6235 260.457 56.9062 262.258 57.4687C264.059 58.0313 265.751 58.8435 267.333 59.9028Z" fill="#20262D"/>
<path d="M275.919 58.2892C275.919 58.0038 276.021 57.7459 276.221 57.5208C276.425 57.2931 276.686 57.1806 277.004 57.1806H284.503C284.756 57.1806 285.017 57.2848 285.286 57.4961C285.555 57.7074 285.69 57.9709 285.69 58.292V74.949H298.242V58.292C298.242 57.9901 298.346 57.7294 298.558 57.5099C298.769 57.2903 299.041 57.1806 299.379 57.1806H306.779C307.117 57.1806 307.411 57.2656 307.663 57.433C307.916 57.6004 308.042 57.8721 308.042 58.2398V93.5462C308.042 93.9166 307.932 94.1938 307.713 94.3777C307.493 94.5643 307.207 94.6548 306.853 94.6548H299.379C299.041 94.6548 298.769 94.5615 298.558 94.3777C298.346 94.1938 298.242 93.9139 298.242 93.5462V83.9059H285.69V93.5462C285.69 93.9002 285.577 94.1718 285.349 94.3667C285.121 94.5615 284.814 94.6576 284.427 94.6576H277.001C276.312 94.6576 275.95 94.3283 275.917 93.6724V58.2892H275.919Z" fill="#20262D"/>
<path d="M360.368 58.2892C360.368 57.5483 360.738 57.1778 361.48 57.1778H384.03C384.384 57.1778 384.656 57.3013 384.851 57.5428C385.043 57.787 385.142 58.0532 385.142 58.3386V64.9767C385.142 65.3307 385.032 65.6079 384.813 65.811C384.593 66.014 384.332 66.1128 384.03 66.1128H370.141V93.5709C370.141 93.9084 370.017 94.1773 369.775 94.3777C369.531 94.5807 369.267 94.6795 368.979 94.6795H361.504C361.15 94.6795 360.873 94.5697 360.672 94.3502C360.469 94.1307 360.37 93.87 360.37 93.5681V58.2892H360.368Z" fill="#20262D"/>
<path d="M387.388 75.9534C387.388 74.1696 387.616 72.4573 388.069 70.819C388.525 69.178 389.171 67.6386 390.014 66.2006C390.854 64.7627 391.862 63.4537 393.031 62.2765C394.201 61.0992 395.503 60.0921 396.933 59.2606C398.364 58.4292 399.902 57.7815 401.541 57.3178C403.183 56.854 404.897 56.6235 406.679 56.6235C408.447 56.6235 410.156 56.854 411.806 57.3178C413.456 57.7815 414.997 58.4292 416.427 59.2606C417.858 60.0921 419.162 61.0992 420.34 62.2765C421.519 63.4537 422.526 64.7627 423.358 66.2006C424.19 67.6386 424.838 69.178 425.303 70.819C425.767 72.46 425.997 74.1724 425.997 75.9534C425.997 77.7371 425.767 79.4494 425.303 81.0877C424.838 82.7287 424.19 84.2599 423.358 85.6814C422.526 87.1029 421.519 88.3981 420.34 89.5671C419.162 90.7361 417.858 91.7405 416.427 92.583C414.997 93.4254 413.456 94.073 411.806 94.5258C410.156 94.9813 408.447 95.2064 406.679 95.2064C404.894 95.2064 403.181 94.9786 401.541 94.5258C399.899 94.0703 398.364 93.4254 396.933 92.583C395.503 91.7432 394.201 90.7361 393.031 89.5671C391.862 88.3981 390.857 87.1029 390.014 85.6814C389.171 84.2599 388.522 82.7287 388.069 81.0877C387.614 79.4494 387.388 77.7371 387.388 75.9534ZM397.134 75.9287C397.134 77.3254 397.37 78.6289 397.84 79.8391C398.312 81.0493 398.971 82.1058 399.822 83.0058C400.674 83.9059 401.679 84.6139 402.84 85.1243C404.002 85.6375 405.281 85.8927 406.679 85.8927C408.077 85.8927 409.359 85.6375 410.529 85.1243C411.699 84.6112 412.709 83.9059 413.561 83.0058C414.409 82.1058 415.071 81.0493 415.543 79.8391C416.016 78.6289 416.252 77.3254 416.252 75.9287C416.252 74.5483 416.016 73.2504 415.543 72.0292C415.071 70.8108 414.412 69.7461 413.561 68.8378C412.709 67.9294 411.699 67.2132 410.529 66.6918C409.359 66.1704 408.074 65.9097 406.679 65.9097C405.281 65.9097 404.002 66.1704 402.84 66.6918C401.679 67.2132 400.674 67.9294 399.822 68.8378C398.971 69.7461 398.312 70.8108 397.84 72.0292C397.37 73.2504 397.134 74.5483 397.134 75.9287Z" fill="#20262D"/>
<path d="M118.158 65.9152H83.5502C82.7072 65.9152 82.0234 65.2319 82.0234 64.3895V58.7036C82.0234 57.8611 82.7072 57.1778 83.5502 57.1778H118.161C119.004 57.1778 119.688 57.8611 119.688 58.7036V64.3867C119.688 65.2319 119.004 65.9152 118.158 65.9152Z" fill="#F9000C"/>
<path d="M109.129 80.5608H83.3498C82.6166 80.5608 82.0234 79.9681 82.0234 79.2354V73.1516C82.0234 72.4189 82.6166 71.8261 83.3498 71.8261H109.129C109.863 71.8261 110.456 72.4189 110.456 73.1516V79.2354C110.456 79.9681 109.863 80.5608 109.129 80.5608Z" fill="#02D3BA"/>
<path d="M118.158 95.2091H83.5502C82.7072 95.2091 82.0234 94.5258 82.0234 93.6834V88.0002C82.0234 87.1578 82.7072 86.4745 83.5502 86.4745H118.161C119.004 86.4745 119.688 87.1578 119.688 88.0002V93.6834C119.688 94.5258 119.004 95.2091 118.158 95.2091Z" fill="#6B50B8"/>
<path d="M215.897 58.6898L198.356 93.5352C197.902 94.438 198.559 95.5 199.567 95.5H234.652C235.663 95.5 236.319 94.4353 235.863 93.5352L218.322 58.6898C217.819 57.6937 216.397 57.6937 215.897 58.6898Z" fill="#6B50B8"/>
<path d="M314.896 75.9287C314.896 74.145 315.124 72.4326 315.577 70.7943C316.033 69.1533 316.678 67.6139 317.522 66.1759C318.362 64.738 319.37 63.429 320.539 62.2518C321.709 61.0745 323.011 60.0674 324.441 59.236C325.872 58.4045 327.41 57.7569 329.049 57.2931C330.691 56.8293 332.405 56.5988 334.187 56.5988C335.955 56.5988 337.664 56.8293 339.314 57.2931C340.964 57.7569 342.505 58.4045 343.935 59.236C345.366 60.0674 346.67 61.0745 347.848 62.2518C349.027 63.429 350.034 64.738 350.866 66.1759C351.698 67.6139 352.346 69.1533 352.811 70.7943C353.275 72.4353 353.505 74.1477 353.505 75.9287C353.505 77.7124 353.275 79.4247 352.811 81.063C352.346 82.704 351.698 84.2352 350.866 85.6567C350.034 87.0782 349.027 88.3734 347.848 89.5424C346.67 90.7114 345.366 91.7158 343.935 92.5582C342.505 93.4007 340.964 94.0483 339.314 94.5011C337.664 94.9566 335.955 95.1817 334.187 95.1817C332.402 95.1817 330.689 94.9539 329.049 94.5011C327.41 94.0483 325.872 93.4007 324.441 92.5582C323.011 91.7185 321.709 90.7114 320.539 89.5424C319.37 88.3734 318.365 87.0782 317.522 85.6567C316.678 84.2352 316.03 82.704 315.577 81.063C315.124 79.4247 314.896 77.7124 314.896 75.9287Z" fill="#F9000C"/>
</svg>
