<svg width="52" height="52" viewBox="0 0 52 52" fill="none" xmlns="http://www.w3.org/2000/svg">
<path d="M36.49 16.7144H15.51L26 25.7058L36.49 16.7144Z" fill="#02D3BA"/>
<path d="M26 27.8571C25.7783 27.8571 25.5638 27.7777 25.3956 27.6331L13.9286 17.8042V35.2856H38.0714V17.8042L26.6044 27.6331C26.4362 27.7777 26.2217 27.8571 26 27.8571Z" fill="#02D3BA"/>
<path d="M26 0C11.6407 0 0 11.6407 0 26C0 40.3593 11.6407 52 26 52C40.3593 52 52 40.3593 52 26C51.9837 11.6475 40.3525 0.0163225 26 0ZM39.9286 36.2143C39.9286 36.7271 39.5128 37.1429 39 37.1429H13C12.4872 37.1429 12.0714 36.7271 12.0714 36.2143V15.7857C12.0714 15.2729 12.4872 14.8571 13 14.8571H39C39.5128 14.8571 39.9286 15.2729 39.9286 15.7857V36.2143Z" fill="#02D3BA"/>
</svg>
