<svg width="52" height="52" viewBox="0 0 52 52" fill="none" xmlns="http://www.w3.org/2000/svg">
<path d="M30.6737 29.9529L28.6855 33.7601C28.4679 34.1772 27.9732 34.3658 27.533 34.1994C23.0438 32.5001 19.5005 28.9558 17.8025 24.4662C17.6361 24.026 17.8247 23.5313 18.2418 23.3137L22.0491 21.3264L20.8484 14.524C19.4107 13.7146 17.6515 13.7296 16.2273 14.5625C14.8032 15.3954 13.9281 16.9216 13.9286 18.5715C13.9408 29.3358 22.6643 38.0593 33.4286 38.0715C35.0776 38.0715 36.6033 37.1969 37.4362 35.7732C38.2691 34.35 38.2845 32.5912 37.4761 31.1535L30.6737 29.9529Z" fill="#02D3BA"/>
<path d="M26 0C11.6407 0 0 11.6407 0 26C0 40.3593 11.6407 52 26 52C40.3593 52 52 40.3593 52 26C51.9837 11.6475 40.3525 0.0163225 26 0ZM33.4286 39.9286C21.6387 39.9154 12.0846 30.3613 12.0714 18.5714C12.0719 16.1675 13.399 13.9599 15.5218 12.8318C17.6451 11.7042 20.2173 11.8402 22.2095 13.1859C22.4181 13.3265 22.5605 13.5459 22.604 13.7939L23.9969 21.6745C24.0671 22.0735 23.8713 22.4716 23.5122 22.6589L19.8537 24.57C21.3499 27.9524 24.0522 30.656 27.4337 32.1536L29.3429 28.4905C29.5302 28.1315 29.9283 27.9356 30.3273 28.0059L38.2088 29.3987C38.4564 29.4422 38.6754 29.5842 38.8159 29.7923C40.1607 31.7845 40.2963 34.3567 39.1682 36.4791C38.0397 38.6019 35.8325 39.9286 33.4286 39.9286Z" fill="#02D3BA"/>
</svg>
